<svg xmlns="http://www.w3.org/2000/svg" viewBox="0 40 600 350" width="100%" height="100%" style="font-family: sans-serif;">
  <defs>
    <style>
      .edge { stroke: #00b3ff; stroke-width: 1.2; opacity: 1; filter: drop-shadow(0 0 3px #00b3ff); transform-origin: center; }
      .node {r: 4.5; fill: #00ffff; filter: drop-shadow(0 0 4px #00ffff)}
    </style>
  </defs>
  <circle cx="300" cy="225" r="200" fill="#0055ff" opacity="0.08" filter="blur(40px)"/>

  <!-- ========== DENSE LIGHTNING NETWORK FOR "V" (LEFT SIDE) ========== -->
  <g id="V_left">
    <!-- Original nodes with added nearby points (each becomes a small cluster) -->
    <!-- Cluster around (50,60) -->
    <circle class="node" cx="50" cy="60" />
    <circle class="node" cx="53" cy="63" />
    <circle class="node" cx="47" cy="58" />
    <circle class="node" cx="52" cy="55" />
    <!-- Cluster around (120,60) -->
    <circle class="node" cx="120" cy="60" />
    <circle class="node" cx="123" cy="63" />
    <circle class="node" cx="117" cy="58" />
    <circle class="node" cx="122" cy="55" />
    <!-- Cluster around (85,150) -->
    <circle class="node" cx="85" cy="150" />
    <circle class="node" cx="88" cy="153" />
    <circle class="node" cx="82" cy="147" />
    <circle class="node" cx="87" cy="145" />
    <!-- Cluster around (125,150) -->
    <circle class="node" cx="125" cy="150" />
    <circle class="node" cx="128" cy="153" />
    <circle class="node" cx="122" cy="147" />
    <circle class="node" cx="127" cy="145" />
    <!-- Cluster around (115,240) -->
    <circle class="node" cx="115" cy="240" />
    <circle class="node" cx="118" cy="243" />
    <circle class="node" cx="112" cy="237" />
    <circle class="node" cx="117" cy="235" />
    <!-- Cluster around (145,240) -->
    <circle class="node" cx="145" cy="240" />
    <circle class="node" cx="148" cy="243" />
    <circle class="node" cx="142" cy="237" />
    <circle class="node" cx="147" cy="235" />
    <!-- Cluster around (160,300) -->
    <circle class="node" cx="160" cy="300" />
    <circle class="node" cx="163" cy="303" />
    <circle class="node" cx="157" cy="297" />
    <circle class="node" cx="162" cy="295" />
    <!-- Cluster around (170,320) -->
    <circle class="node" cx="170" cy="320" />
    <circle class="node" cx="173" cy="323" />
    <circle class="node" cx="167" cy="317" />
    <circle class="node" cx="172" cy="315" />

    <!-- Edges – each original edge becomes a bundle of 3–4 connections -->
    <!-- Between (50,60) and (120,60) region -->
    <line class="edge flash1" x1="50" y1="60" x2="120" y2="60"/>
    <line class="edge flash2" x1="53" y1="63" x2="123" y2="63"/>
    <line class="edge flash3" x1="47" y1="58" x2="117" y2="58"/>
    <line class="edge flash4" x1="52" y1="55" x2="122" y2="55"/>
    <line class="edge flash1" x1="50" y1="60" x2="123" y2="63"/>
    <line class="edge flash2" x1="120" y1="60" x2="53" y2="63"/>
    <!-- Between (50,60) and (85,150) -->
    <line class="edge flash3" x1="50" y1="60" x2="85" y2="150"/>
    <line class="edge flash4" x1="53" y1="63" x2="88" y2="153"/>
    <line class="edge flash1" x1="47" y1="58" x2="82" y2="147"/>
    <line class="edge flash2" x1="52" y1="55" x2="87" y2="145"/>
    <line class="edge flash3" x1="50" y1="60" x2="88" y2="153"/>
    <!-- Between (120,60) and (125,150) -->
    <line class="edge flash4" x1="120" y1="60" x2="125" y2="150"/>
    <line class="edge flash1" x1="123" y1="63" x2="128" y2="153"/>
    <line class="edge flash2" x1="117" y1="58" x2="122" y2="147"/>
    <line class="edge flash3" x1="122" y1="55" x2="127" y2="145"/>
    <!-- Between (85,150) and (125,150) -->
    <line class="edge flash4" x1="85" y1="150" x2="125" y2="150"/>
    <line class="edge flash1" x1="88" y1="153" x2="128" y2="153"/>
    <line class="edge flash2" x1="82" y1="147" x2="122" y2="147"/>
    <line class="edge flash3" x1="87" y1="145" x2="127" y2="145"/>
    <!-- Between (85,150) and (115,240) -->
    <line class="edge flash4" x1="85" y1="150" x2="115" y2="240"/>
    <line class="edge flash1" x1="88" y1="153" x2="118" y2="243"/>
    <line class="edge flash2" x1="82" y1="147" x2="112" y2="237"/>
    <line class="edge flash3" x1="87" y1="145" x2="117" y2="235"/>
    <!-- Between (125,150) and (145,240) -->
    <line class="edge flash4" x1="125" y1="150" x2="145" y2="240"/>
    <line class="edge flash1" x1="128" y1="153" x2="148" y2="243"/>
    <line class="edge flash2" x1="122" y1="147" x2="142" y2="237"/>
    <line class="edge flash3" x1="127" y1="145" x2="147" y2="235"/>
    <!-- Between (115,240) and (145,240) -->
    <line class="edge flash4" x1="115" y1="240" x2="145" y2="240"/>
    <line class="edge flash1" x1="118" y1="243" x2="148" y2="243"/>
    <line class="edge flash2" x1="112" y1="237" x2="142" y2="237"/>
    <line class="edge flash3" x1="117" y1="235" x2="147" y2="235"/>
    <!-- Between (115,240) and (160,300) -->
    <line class="edge flash4" x1="115" y1="240" x2="160" y2="300"/>
    <line class="edge flash1" x1="118" y1="243" x2="163" y2="303"/>
    <line class="edge flash2" x1="112" y1="237" x2="157" y2="297"/>
    <line class="edge flash3" x1="117" y1="235" x2="162" y2="295"/>
    <!-- Between (145,240) and (170,320) -->
    <line class="edge flash4" x1="145" y1="240" x2="170" y2="320"/>
    <line class="edge flash1" x1="148" y1="243" x2="173" y2="323"/>
    <line class="edge flash2" x1="142" y1="237" x2="167" y2="317"/>
    <line class="edge flash3" x1="147" y1="235" x2="172" y2="315"/>
    <!-- Between (160,300) and (170,320) -->
    <line class="edge flash4" x1="160" y1="300" x2="170" y2="320"/>
    <line class="edge flash1" x1="163" y1="303" x2="173" y2="323"/>
    <line class="edge flash2" x1="157" y1="297" x2="167" y2="317"/>
    <line class="edge flash3" x1="162" y1="295" x2="172" y2="315"/>
    <!-- Additional cross connections within clusters -->
    <line class="edge flash1" x1="50" y1="60" x2="53" y2="63"/>
    <line class="edge flash2" x1="50" y1="60" x2="47" y2="58"/>
    <line class="edge flash3" x1="50" y1="60" x2="52" y2="55"/>
    <line class="edge flash4" x1="120" y1="60" x2="123" y2="63"/>
    <line class="edge flash1" x1="85" y1="150" x2="88" y2="153"/>
    <line class="edge flash2" x1="125" y1="150" x2="128" y2="153"/>
    <!-- ... similar for all clusters (omitting a few for brevity, but pattern continues) -->
  </g>

  <!-- ========== DENSE NETWORK FOR "V" (RIGHT SIDE) ========== -->
  <g id="V_right">
  <!-- Clusters around (290,60), (220,60), (255,150), (215,150), (225,240), (195,240) -->
  <circle class="node" cx="290" cy="60" /><circle class="node" cx="293" cy="63" /><circle class="node" cx="287" cy="58" /><circle class="node" cx="292" cy="55" />
  <circle class="node" cx="220" cy="60" /><circle class="node" cx="223" cy="63" /><circle class="node" cx="217" cy="58" /><circle class="node" cx="222" cy="55" />
  <circle class="node" cx="255" cy="150" /><circle class="node" cx="258" cy="153" /><circle class="node" cx="252" cy="147" /><circle class="node" cx="257" cy="145" />
  <circle class="node" cx="215" cy="150" /><circle class="node" cx="218" cy="153" /><circle class="node" cx="212" cy="147" /><circle class="node" cx="217" cy="145" />
  <circle class="node" cx="225" cy="240" /><circle class="node" cx="228" cy="243" /><circle class="node" cx="222" cy="237" /><circle class="node" cx="227" cy="235" />
  <circle class="node" cx="195" cy="240" /><circle class="node" cx="198" cy="243" /><circle class="node" cx="192" cy="237" /><circle class="node" cx="197" cy="235" />

  <!-- Bottom clusters (160,300) and (170,320) are defined in V_left – we reference them here -->

  <!-- Edge bundles for each original connection (4 lines per connection, using matching cluster points) -->

  <!-- 1. (290,60) to (220,60) -->
  <line class="edge flash1" x1="290" y1="60" x2="220" y2="60"/>
  <line class="edge flash2" x1="293" y1="63" x2="223" y2="63"/>
  <line class="edge flash3" x1="287" y1="58" x2="217" y2="58"/>
  <line class="edge flash4" x1="292" y1="55" x2="222" y2="55"/>

  <!-- 2. (290,60) to (255,150) -->
  <line class="edge flash1" x1="290" y1="60" x2="255" y2="150"/>
  <line class="edge flash2" x1="293" y1="63" x2="258" y2="153"/>
  <line class="edge flash3" x1="287" y1="58" x2="252" y2="147"/>
  <line class="edge flash4" x1="292" y1="55" x2="257" y2="145"/>

    <!-- 3. (220,60) to (215,150) -->
    <line class="edge flash1" x1="220" y1="60" x2="215" y2="150"/>
    <line class="edge flash2" x1="223" y1="63" x2="218" y2="153"/>
    <line class="edge flash3" x1="217" y1="58" x2="212" y2="147"/>
    <line class="edge flash4" x1="222" y1="55" x2="217" y2="145"/>

    <!-- 4. (255,150) to (215,150) -->
    <line class="edge flash1" x1="255" y1="150" x2="215" y2="150"/>
    <line class="edge flash2" x1="258" y1="153" x2="218" y2="153"/>
    <line class="edge flash3" x1="252" y1="147" x2="212" y2="147"/>
    <line class="edge flash4" x1="257" y1="145" x2="217" y2="145"/>

    <!-- 5. (255,150) to (225,240) -->
    <line class="edge flash1" x1="255" y1="150" x2="225" y2="240"/>
    <line class="edge flash2" x1="258" y1="153" x2="228" y2="243"/>
    <line class="edge flash3" x1="252" y1="147" x2="222" y2="237"/>
    <line class="edge flash4" x1="257" y1="145" x2="227" y2="235"/>

    <!-- 6. (215,150) to (195,240) -->
    <line class="edge flash1" x1="215" y1="150" x2="195" y2="240"/>
    <line class="edge flash2" x1="218" y1="153" x2="198" y2="243"/>
    <line class="edge flash3" x1="212" y1="147" x2="192" y2="237"/>
    <line class="edge flash4" x1="217" y1="145" x2="197" y2="235"/>

    <!-- 7. (225,240) to (195,240) -->
    <line class="edge flash1" x1="225" y1="240" x2="195" y2="240"/>
    <line class="edge flash2" x1="228" y1="243" x2="198" y2="243"/>
    <line class="edge flash3" x1="222" y1="237" x2="192" y2="237"/>
    <line class="edge flash4" x1="227" y1="235" x2="197" y2="235"/>

    <!-- 8. (225,240) to (170,320) -->
    <line class="edge flash1" x1="225" y1="240" x2="170" y2="320"/>
    <line class="edge flash2" x1="228" y1="243" x2="173" y2="323"/>
    <line class="edge flash3" x1="222" y1="237" x2="167" y2="317"/>
    <line class="edge flash4" x1="227" y1="235" x2="172" y2="315"/>

    <!-- 9. (195,240) to (160,300) -->
    <line class="edge flash1" x1="195" y1="240" x2="160" y2="300"/>
    <line class="edge flash2" x1="198" y1="243" x2="163" y2="303"/>
    <line class="edge flash3" x1="192" y1="237" x2="157" y2="297"/>
    <line class="edge flash4" x1="197" y1="235" x2="162" y2="295"/>

    <!-- 10. (220,60) to (255,150)  (original flash3) -->
    <line class="edge flash1" x1="220" y1="60" x2="255" y2="150"/>
    <line class="edge flash2" x1="223" y1="63" x2="258" y2="153"/>
    <line class="edge flash3" x1="217" y1="58" x2="252" y2="147"/>
    <line class="edge flash4" x1="222" y1="55" x2="257" y2="145"/>

    <!-- 11. (215,150) to (225,240)  (original flash4) -->
    <line class="edge flash1" x1="215" y1="150" x2="225" y2="240"/>
    <line class="edge flash2" x1="218" y1="153" x2="228" y2="243"/>
    <line class="edge flash3" x1="212" y1="147" x2="222" y2="237"/>
    <line class="edge flash4" x1="217" y1="145" x2="227" y2="235"/>

    <!-- 12. (195,240) to (170,320)  (original flash1) -->
    <line class="edge flash1" x1="195" y1="240" x2="170" y2="320"/>
    <line class="edge flash2" x1="198" y1="243" x2="173" y2="323"/>
    <line class="edge flash3" x1="192" y1="237" x2="167" y2="317"/>
    <line class="edge flash4" x1="197" y1="235" x2="172" y2="315"/>

    <!-- 13. (170,320) to (160,300)  (shared connection, already in V_left, but included here for completeness) -->
    <line class="edge flash1" x1="170" y1="320" x2="160" y2="300"/>
    <line class="edge flash2" x1="173" y1="323" x2="163" y2="303"/>
    <line class="edge flash3" x1="167" y1="317" x2="157" y2="297"/>
    <line class="edge flash4" x1="172" y1="315" x2="162" y2="295"/>

    <!-- Additional internal cluster connections (to increase density) -->
    <line class="edge flash1" x1="290" y1="60" x2="293" y2="63"/>
    <line class="edge flash2" x1="290" y1="60" x2="287" y2="58"/>
    <line class="edge flash3" x1="290" y1="60" x2="292" y2="55"/>
    <line class="edge flash4" x1="293" y1="63" x2="287" y2="58"/>
    <line class="edge flash1" x1="293" y1="63" x2="292" y2="55"/>
    <line class="edge flash2" x1="287" y1="58" x2="292" y2="55"/>

    <line class="edge flash3" x1="220" y1="60" x2="223" y2="63"/>
    <line class="edge flash4" x1="220" y1="60" x2="217" y2="58"/>
    <line class="edge flash1" x1="220" y1="60" x2="222" y2="55"/>
    <line class="edge flash2" x1="223" y1="63" x2="217" y2="58"/>
    <line class="edge flash3" x1="223" y1="63" x2="222" y2="55"/>
    <line class="edge flash4" x1="217" y1="58" x2="222" y2="55"/>
  </g>

  <!-- ========== DENSE NETWORK FOR "g" (MIDDLE) ========== -->
  <g id="g_shape">
  <!-- Top loop nodes -->
  <circle class="node" cx="420" cy="130" /><circle class="node" cx="423" cy="133" /><circle class="node" cx="417" cy="127" /><circle class="node" cx="422" cy="125" />
  <circle class="node" cx="360" cy="130" /><circle class="node" cx="363" cy="133" /><circle class="node" cx="357" cy="127" /><circle class="node" cx="362" cy="125" />
  <circle class="node" cx="320" cy="170" /><circle class="node" cx="323" cy="173" /><circle class="node" cx="317" cy="167" /><circle class="node" cx="322" cy="165" />
  <circle class="node" cx="320" cy="230" /><circle class="node" cx="323" cy="233" /><circle class="node" cx="317" cy="227" /><circle class="node" cx="322" cy="225" />
  <circle class="node" cx="360" cy="270" /><circle class="node" cx="363" cy="273" /><circle class="node" cx="357" cy="267" /><circle class="node" cx="362" cy="265" />
  <circle class="node" cx="420" cy="270" /><circle class="node" cx="423" cy="273" /><circle class="node" cx="417" cy="267" /><circle class="node" cx="422" cy="265" />
  <circle class="node" cx="460" cy="200" /><circle class="node" cx="463" cy="203" /><circle class="node" cx="457" cy="197" /><circle class="node" cx="462" cy="195" />
  <circle class="node" cx="460" cy="130" /><circle class="node" cx="463" cy="133" /><circle class="node" cx="457" cy="127" /><circle class="node" cx="462" cy="125" />
  <circle class="node" cx="400" cy="160" /><circle class="node" cx="403" cy="163" /><circle class="node" cx="397" cy="157" /><circle class="node" cx="402" cy="155" />
  <circle class="node" cx="345" cy="200" /><circle class="node" cx="348" cy="203" /><circle class="node" cx="342" cy="197" /><circle class="node" cx="347" cy="195" />
  <circle class="node" cx="360" cy="240" /><circle class="node" cx="363" cy="243" /><circle class="node" cx="357" cy="237" /><circle class="node" cx="362" cy="235" />
  <circle class="node" cx="400" cy="240" /><circle class="node" cx="403" cy="243" /><circle class="node" cx="397" cy="237" /><circle class="node" cx="402" cy="235" />
  <circle class="node" cx="420" cy="200" /><circle class="node" cx="423" cy="203" /><circle class="node" cx="417" cy="197" /><circle class="node" cx="422" cy="195" />

  <!-- Descender nodes -->
  <circle class="node" cx="460" cy="270" /><circle class="node" cx="463" cy="273" /><circle class="node" cx="457" cy="267" /><circle class="node" cx="462" cy="265" />
  <circle class="node" cx="450" cy="330" /><circle class="node" cx="453" cy="333" /><circle class="node" cx="447" cy="327" /><circle class="node" cx="452" cy="325" />
  <circle class="node" cx="400" cy="370" /><circle class="node" cx="403" cy="373" /><circle class="node" cx="397" cy="367" /><circle class="node" cx="402" cy="365" />
  <circle class="node" cx="340" cy="370" /><circle class="node" cx="343" cy="373" /><circle class="node" cx="337" cy="367" /><circle class="node" cx="342" cy="365" />
  <circle class="node" cx="310" cy="330" /><circle class="node" cx="313" cy="333" /><circle class="node" cx="307" cy="327" /><circle class="node" cx="312" cy="325" />
  <circle class="node" cx="330" cy="300" /><circle class="node" cx="333" cy="303" /><circle class="node" cx="327" cy="297" /><circle class="node" cx="332" cy="295" />
  <circle class="node" cx="380" cy="300" /><circle class="node" cx="383" cy="303" /><circle class="node" cx="377" cy="297" /><circle class="node" cx="382" cy="295" />
  <circle class="node" cx="420" cy="330" /><circle class="node" cx="423" cy="333" /><circle class="node" cx="417" cy="327" /><circle class="node" cx="422" cy="325" />
  <circle class="node" cx="380" cy="345" /><circle class="node" cx="383" cy="348" /><circle class="node" cx="377" cy="342" /><circle class="node" cx="382" cy="340" />
  <circle class="node" cx="340" cy="345" /><circle class="node" cx="343" cy="348" /><circle class="node" cx="337" cy="342" /><circle class="node" cx="342" cy="340" />

  <!-- ========== EDGES BETWEEN CLUSTERS ========== -->
  <!-- Each original edge is replaced by 4 parallel lines connecting corresponding offset points (p0-p0, p1-p1, p2-p2, p3-p3) -->

  <!-- 1. (420,130) to (360,130) -->
  <line class="edge flash1" x1="420" y1="130" x2="360" y2="130"/>
  <line class="edge flash2" x1="423" y1="133" x2="363" y2="133"/>
  <line class="edge flash3" x1="417" y1="127" x2="357" y2="127"/>
  <line class="edge flash4" x1="422" y1="125" x2="362" y2="125"/>

  <!-- 2. (360,130) to (320,170) -->
  <line class="edge flash1" x1="360" y1="130" x2="320" y2="170"/>
  <line class="edge flash2" x1="363" y1="133" x2="323" y2="173"/>
  <line class="edge flash3" x1="357" y1="127" x2="317" y2="167"/>
  <line class="edge flash4" x1="362" y1="125" x2="322" y2="165"/>

  <!-- 3. (320,170) to (320,230) -->
  <line class="edge flash1" x1="320" y1="170" x2="320" y2="230"/>
  <line class="edge flash2" x1="323" y1="173" x2="323" y2="233"/>
  <line class="edge flash3" x1="317" y1="167" x2="317" y2="227"/>
  <line class="edge flash4" x1="322" y1="165" x2="322" y2="225"/>

  <!-- 4. (320,230) to (360,270) -->
  <line class="edge flash1" x1="320" y1="230" x2="360" y2="270"/>
  <line class="edge flash2" x1="323" y1="233" x2="363" y2="273"/>
  <line class="edge flash3" x1="317" y1="227" x2="357" y2="267"/>
  <line class="edge flash4" x1="322" y1="225" x2="362" y2="265"/>

  <!-- 5. (360,270) to (420,270) -->
  <line class="edge flash1" x1="360" y1="270" x2="420" y2="270"/>
  <line class="edge flash2" x1="363" y1="273" x2="423" y2="273"/>
  <line class="edge flash3" x1="357" y1="267" x2="417" y2="267"/>
  <line class="edge flash4" x1="362" y1="265" x2="422" y2="265"/>

  <!-- 6. (420,270) to (460,200) -->
  <line class="edge flash1" x1="420" y1="270" x2="460" y2="200"/>
  <line class="edge flash2" x1="423" y1="273" x2="463" y2="203"/>
  <line class="edge flash3" x1="417" y1="267" x2="457" y2="197"/>
  <line class="edge flash4" x1="422" y1="265" x2="462" y2="195"/>

  <!-- 7. (460,200) to (460,130) -->
  <line class="edge flash1" x1="460" y1="200" x2="460" y2="130"/>
  <line class="edge flash2" x1="463" y1="203" x2="463" y2="133"/>
  <line class="edge flash3" x1="457" y1="197" x2="457" y2="127"/>
  <line class="edge flash4" x1="462" y1="195" x2="462" y2="125"/>

  <!-- 8. (460,130) to (420,130) -->
  <line class="edge flash1" x1="460" y1="130" x2="420" y2="130"/>
  <line class="edge flash2" x1="463" y1="133" x2="423" y2="133"/>
  <line class="edge flash3" x1="457" y1="127" x2="417" y2="127"/>
  <line class="edge flash4" x1="462" y1="125" x2="422" y2="125"/>

  <!-- 9. (345,200) to (360,240) -->
  <line class="edge flash1" x1="345" y1="200" x2="360" y2="240"/>
  <line class="edge flash2" x1="348" y1="203" x2="363" y2="243"/>
  <line class="edge flash3" x1="342" y1="197" x2="357" y2="237"/>
  <line class="edge flash4" x1="347" y1="195" x2="362" y2="235"/>

  <!-- 10. (360,240) to (400,240) -->
  <line class="edge flash1" x1="360" y1="240" x2="400" y2="240"/>
  <line class="edge flash2" x1="363" y1="243" x2="403" y2="243"/>
  <line class="edge flash3" x1="357" y1="237" x2="397" y2="237"/>
  <line class="edge flash4" x1="362" y1="235" x2="402" y2="235"/>

  <!-- 11. (400,240) to (420,200) -->
  <line class="edge flash1" x1="400" y1="240" x2="420" y2="200"/>
  <line class="edge flash2" x1="403" y1="243" x2="423" y2="203"/>
  <line class="edge flash3" x1="397" y1="237" x2="417" y2="197"/>
  <line class="edge flash4" x1="402" y1="235" x2="422" y2="195"/>

  <!-- 12. (420,200) to (400,160) -->
  <line class="edge flash1" x1="420" y1="200" x2="400" y2="160"/>
  <line class="edge flash2" x1="423" y1="203" x2="403" y2="163"/>
  <line class="edge flash3" x1="417" y1="197" x2="397" y2="157"/>
  <line class="edge flash4" x1="422" y1="195" x2="402" y2="155"/>

  <!-- 13. (420,130) to (400,160) -->
  <line class="edge flash1" x1="420" y1="130" x2="400" y2="160"/>
  <line class="edge flash2" x1="423" y1="133" x2="403" y2="163"/>
  <line class="edge flash3" x1="417" y1="127" x2="397" y2="157"/>
  <line class="edge flash4" x1="422" y1="125" x2="402" y2="155"/>
    
  <!-- 13. (420,130) to (400,160) -->
  <line class="edge flash1" x1="345" y1="200" x2="400" y2="160"/>
  <line class="edge flash2" x1="348" y1="203" x2="403" y2="163"/>
  <line class="edge flash3" x1="342" y1="197" x2="397" y2="157"/>
  <line class="edge flash4" x1="347" y1="195" x2="402" y2="155"/>

  <!-- 14. (320,170) to (345,200) -->
  <line class="edge flash1" x1="320" y1="170" x2="345" y2="200"/>
  <line class="edge flash2" x1="323" y1="173" x2="348" y2="203"/>
  <line class="edge flash3" x1="317" y1="167" x2="342" y2="197"/>
  <line class="edge flash4" x1="322" y1="165" x2="347" y2="195"/>

  <!-- 15. (320,230) to (360,240) -->
  <line class="edge flash1" x1="320" y1="230" x2="360" y2="240"/>
  <line class="edge flash2" x1="323" y1="233" x2="363" y2="243"/>
  <line class="edge flash3" x1="317" y1="227" x2="357" y2="237"/>
  <line class="edge flash4" x1="322" y1="225" x2="362" y2="235"/>

  <!-- 16. (360,270) to (400,240) -->
  <line class="edge flash1" x1="360" y1="270" x2="400" y2="240"/>
  <line class="edge flash2" x1="363" y1="273" x2="403" y2="243"/>
  <line class="edge flash3" x1="357" y1="267" x2="397" y2="237"/>
  <line class="edge flash4" x1="362" y1="265" x2="402" y2="235"/>

  <!-- 17. (420,270) to (420,200) -->
  <line class="edge flash1" x1="420" y1="270" x2="420" y2="200"/>
  <line class="edge flash2" x1="423" y1="273" x2="423" y2="203"/>
  <line class="edge flash3" x1="417" y1="267" x2="417" y2="197"/>
  <line class="edge flash4" x1="422" y1="265" x2="422" y2="195"/>

  <!-- 18. (460,200) to (400,240) -->
  <line class="edge flash1" x1="460" y1="200" x2="400" y2="240"/>
  <line class="edge flash2" x1="463" y1="203" x2="403" y2="243"/>
  <line class="edge flash3" x1="457" y1="197" x2="397" y2="237"/>
  <line class="edge flash4" x1="462" y1="195" x2="402" y2="235"/>

  <!-- 19. (320,170) to (360,130) (reverse of #2) -->
  <line class="edge flash1" x1="320" y1="170" x2="360" y2="130"/>
  <line class="edge flash2" x1="323" y1="173" x2="363" y2="133"/>
  <line class="edge flash3" x1="317" y1="167" x2="357" y2="127"/>
  <line class="edge flash4" x1="322" y1="165" x2="362" y2="125"/>

  <!-- 20. (460,200) to (460,270) -->
  <line class="edge flash1" x1="460" y1="200" x2="460" y2="270"/>
  <line class="edge flash2" x1="463" y1="203" x2="463" y2="273"/>
  <line class="edge flash3" x1="457" y1="197" x2="457" y2="267"/>
  <line class="edge flash4" x1="462" y1="195" x2="462" y2="265"/>

  <!-- 21. (460,270) to (450,330) -->
  <line class="edge flash1" x1="460" y1="270" x2="450" y2="330"/>
  <line class="edge flash2" x1="463" y1="273" x2="453" y2="333"/>
  <line class="edge flash3" x1="457" y1="267" x2="447" y2="327"/>
  <line class="edge flash4" x1="462" y1="265" x2="452" y2="325"/>

  <!-- 22. (450,330) to (400,370) -->
  <line class="edge flash1" x1="450" y1="330" x2="400" y2="370"/>
  <line class="edge flash2" x1="453" y1="333" x2="403" y2="373"/>
  <line class="edge flash3" x1="447" y1="327" x2="397" y2="367"/>
  <line class="edge flash4" x1="452" y1="325" x2="402" y2="365"/>

  <!-- 23. (400,370) to (340,370) -->
  <line class="edge flash1" x1="400" y1="370" x2="340" y2="370"/>
  <line class="edge flash2" x1="403" y1="373" x2="343" y2="373"/>
  <line class="edge flash3" x1="397" y1="367" x2="337" y2="367"/>
  <line class="edge flash4" x1="402" y1="365" x2="342" y2="365"/>

  <!-- 24. (340,370) to (310,330) -->
  <line class="edge flash1" x1="340" y1="370" x2="310" y2="330"/>
  <line class="edge flash2" x1="343" y1="373" x2="313" y2="333"/>
  <line class="edge flash3" x1="337" y1="367" x2="307" y2="327"/>
  <line class="edge flash4" x1="342" y1="365" x2="312" y2="325"/>

  <!-- 25. (310,330) to (330,300) -->
  <line class="edge flash1" x1="310" y1="330" x2="330" y2="300"/>
  <line class="edge flash2" x1="313" y1="333" x2="333" y2="303"/>
  <line class="edge flash3" x1="307" y1="327" x2="327" y2="297"/>
  <line class="edge flash4" x1="312" y1="325" x2="332" y2="295"/>

  <!-- 26. (330,300) to (380,300) -->
  <line class="edge flash1" x1="330" y1="300" x2="380" y2="300"/>
  <line class="edge flash2" x1="333" y1="303" x2="383" y2="303"/>
  <line class="edge flash3" x1="327" y1="297" x2="377" y2="297"/>
  <line class="edge flash4" x1="332" y1="295" x2="382" y2="295"/>

  <!-- 27. (380,300) to (420,270) -->
  <line class="edge flash1" x1="380" y1="300" x2="420" y2="270"/>
  <line class="edge flash2" x1="383" y1="303" x2="423" y2="273"/>
  <line class="edge flash3" x1="377" y1="297" x2="417" y2="267"/>
  <line class="edge flash4" x1="382" y1="295" x2="422" y2="265"/>

  <!-- 28. (420,330) to (380,345) -->
  <line class="edge flash1" x1="420" y1="330" x2="380" y2="345"/>
  <line class="edge flash2" x1="423" y1="333" x2="383" y2="348"/>
  <line class="edge flash3" x1="417" y1="327" x2="377" y2="342"/>
  <line class="edge flash4" x1="422" y1="325" x2="382" y2="340"/>

  <!-- 29. (380,345) to (340,345) -->
  <line class="edge flash1" x1="380" y1="345" x2="340" y2="345"/>
  <line class="edge flash2" x1="383" y1="348" x2="343" y2="348"/>
  <line class="edge flash3" x1="377" y1="342" x2="337" y2="342"/>
  <line class="edge flash4" x1="382" y1="340" x2="342" y2="340"/>

  <!-- 30. (340,345) to (330,300) -->
  <line class="edge flash1" x1="340" y1="345" x2="330" y2="300"/>
  <line class="edge flash2" x1="343" y1="348" x2="333" y2="303"/>
  <line class="edge flash3" x1="337" y1="342" x2="327" y2="297"/>
  <line class="edge flash4" x1="342" y1="340" x2="332" y2="295"/>

  <!-- 31. (450,330) to (420,330) -->
  <line class="edge flash1" x1="450" y1="330" x2="420" y2="330"/>
  <line class="edge flash2" x1="453" y1="333" x2="423" y2="333"/>
  <line class="edge flash3" x1="447" y1="327" x2="417" y2="327"/>
  <line class="edge flash4" x1="452" y1="325" x2="422" y2="325"/>

  <!-- 32. (400,370) to (380,345) -->
  <line class="edge flash1" x1="400" y1="370" x2="380" y2="345"/>
  <line class="edge flash2" x1="403" y1="373" x2="383" y2="348"/>
  <line class="edge flash3" x1="397" y1="367" x2="377" y2="342"/>
  <line class="edge flash4" x1="402" y1="365" x2="382" y2="340"/>

  <!-- 33. (340,370) to (340,345) -->
  <line class="edge flash1" x1="340" y1="370" x2="340" y2="345"/>
  <line class="edge flash2" x1="343" y1="373" x2="343" y2="348"/>
  <line class="edge flash3" x1="337" y1="367" x2="337" y2="342"/>
  <line class="edge flash4" x1="342" y1="365" x2="342" y2="340"/>

  <!-- 34. (310,330) to (340,345) -->
  <line class="edge flash1" x1="310" y1="330" x2="340" y2="345"/>
  <line class="edge flash2" x1="313" y1="333" x2="343" y2="348"/>
  <line class="edge flash3" x1="307" y1="327" x2="337" y2="342"/>
  <line class="edge flash4" x1="312" y1="325" x2="342" y2="340"/>

  <!-- 35. (380,300) to (420,330) -->
  <line class="edge flash1" x1="380" y1="300" x2="420" y2="330"/>
  <line class="edge flash2" x1="383" y1="303" x2="423" y2="333"/>
  <line class="edge flash3" x1="377" y1="297" x2="417" y2="327"/>
  <line class="edge flash4" x1="382" y1="295" x2="422" y2="325"/>

  <!-- 36. (460,270) to (420,330) -->
  <line class="edge flash1" x1="460" y1="270" x2="420" y2="330"/>
  <line class="edge flash2" x1="463" y1="273" x2="423" y2="333"/>
  <line class="edge flash3" x1="457" y1="267" x2="417" y2="327"/>
  <line class="edge flash4" x1="462" y1="265" x2="422" y2="325"/>

  <!-- 37. (420,270) to (460,270) -->
  <line class="edge flash1" x1="420" y1="270" x2="460" y2="270"/>
  <line class="edge flash2" x1="423" y1="273" x2="463" y2="273"/>
  <line class="edge flash3" x1="417" y1="267" x2="457" y2="267"/>
  <line class="edge flash4" x1="422" y1="265" x2="462" y2="265"/>


  <!-- ========== INTERNAL CLUSTER CONNECTIONS ========== -->
  <!-- For each node, connect all pairs of its 4 points (6 lines per cluster) -->
  <!-- Node at (420,130) -->
  <line class="edge flash1" x1="420" y1="130" x2="423" y2="133"/>
  <line class="edge flash2" x1="420" y1="130" x2="417" y2="127"/>
  <line class="edge flash3" x1="420" y1="130" x2="422" y2="125"/>
  <line class="edge flash4" x1="423" y1="133" x2="417" y2="127"/>
  <line class="edge flash1" x1="423" y1="133" x2="422" y2="125"/>
  <line class="edge flash2" x1="417" y1="127" x2="422" y2="125"/>

  <!-- Node at (360,130) -->
  <line class="edge flash3" x1="360" y1="130" x2="363" y2="133"/>
  <line class="edge flash4" x1="360" y1="130" x2="357" y2="127"/>
  <line class="edge flash1" x1="360" y1="130" x2="362" y2="125"/>
  <line class="edge flash2" x1="363" y1="133" x2="357" y2="127"/>
  <line class="edge flash3" x1="363" y1="133" x2="362" y2="125"/>
  <line class="edge flash4" x1="357" y1="127" x2="362" y2="125"/>

  <!-- Node at (320,170) -->
  <line class="edge flash1" x1="320" y1="170" x2="323" y2="173"/>
  <line class="edge flash2" x1="320" y1="170" x2="317" y2="167"/>
  <line class="edge flash3" x1="320" y1="170" x2="322" y2="165"/>
  <line class="edge flash4" x1="323" y1="173" x2="317" y2="167"/>
  <line class="edge flash1" x1="323" y1="173" x2="322" y2="165"/>
  <line class="edge flash2" x1="317" y1="167" x2="322" y2="165"/>

  <!-- Node at (320,230) -->
  <line class="edge flash3" x1="320" y1="230" x2="323" y2="233"/>
  <line class="edge flash4" x1="320" y1="230" x2="317" y2="227"/>
  <line class="edge flash1" x1="320" y1="230" x2="322" y2="225"/>
  <line class="edge flash2" x1="323" y1="233" x2="317" y2="227"/>
  <line class="edge flash3" x1="323" y1="233" x2="322" y2="225"/>
  <line class="edge flash4" x1="317" y1="227" x2="322" y2="225"/>

  <!-- Node at (360,270) -->
  <line class="edge flash1" x1="360" y1="270" x2="363" y2="273"/>
  <line class="edge flash2" x1="360" y1="270" x2="357" y2="267"/>
  <line class="edge flash3" x1="360" y1="270" x2="362" y2="265"/>
  <line class="edge flash4" x1="363" y1="273" x2="357" y2="267"/>
  <line class="edge flash1" x1="363" y1="273" x2="362" y2="265"/>
  <line class="edge flash2" x1="357" y1="267" x2="362" y2="265"/>

  <!-- Node at (420,270) -->
  <line class="edge flash3" x1="420" y1="270" x2="423" y2="273"/>
  <line class="edge flash4" x1="420" y1="270" x2="417" y2="267"/>
  <line class="edge flash1" x1="420" y1="270" x2="422" y2="265"/>
  <line class="edge flash2" x1="423" y1="273" x2="417" y2="267"/>
  <line class="edge flash3" x1="423" y1="273" x2="422" y2="265"/>
  <line class="edge flash4" x1="417" y1="267" x2="422" y2="265"/>

  <!-- Node at (460,200) -->
  <line class="edge flash1" x1="460" y1="200" x2="463" y2="203"/>
  <line class="edge flash2" x1="460" y1="200" x2="457" y2="197"/>
  <line class="edge flash3" x1="460" y1="200" x2="462" y2="195"/>
  <line class="edge flash4" x1="463" y1="203" x2="457" y2="197"/>
  <line class="edge flash1" x1="463" y1="203" x2="462" y2="195"/>
  <line class="edge flash2" x1="457" y1="197" x2="462" y2="195"/>

  <!-- Node at (460,130) -->
  <line class="edge flash3" x1="460" y1="130" x2="463" y2="133"/>
  <line class="edge flash4" x1="460" y1="130" x2="457" y2="127"/>
  <line class="edge flash1" x1="460" y1="130" x2="462" y2="125"/>
  <line class="edge flash2" x1="463" y1="133" x2="457" y2="127"/>
  <line class="edge flash3" x1="463" y1="133" x2="462" y2="125"/>
  <line class="edge flash4" x1="457" y1="127" x2="462" y2="125"/>

  <!-- Node at (400,160) -->
  <line class="edge flash1" x1="400" y1="160" x2="403" y2="163"/>
  <line class="edge flash2" x1="400" y1="160" x2="397" y2="157"/>
  <line class="edge flash3" x1="400" y1="160" x2="402" y2="155"/>
  <line class="edge flash4" x1="403" y1="163" x2="397" y2="157"/>
  <line class="edge flash1" x1="403" y1="163" x2="402" y2="155"/>
  <line class="edge flash2" x1="397" y1="157" x2="402" y2="155"/>

  <!-- Node at (345,200) -->
  <line class="edge flash3" x1="345" y1="200" x2="348" y2="203"/>
  <line class="edge flash4" x1="345" y1="200" x2="342" y2="197"/>
  <line class="edge flash1" x1="345" y1="200" x2="347" y2="195"/>
  <line class="edge flash2" x1="348" y1="203" x2="342" y2="197"/>
  <line class="edge flash3" x1="348" y1="203" x2="347" y2="195"/>
  <line class="edge flash4" x1="342" y1="197" x2="347" y2="195"/>

  <!-- Node at (360,240) -->
  <line class="edge flash1" x1="360" y1="240" x2="363" y2="243"/>
  <line class="edge flash2" x1="360" y1="240" x2="357" y2="237"/>
  <line class="edge flash3" x1="360" y1="240" x2="362" y2="235"/>
  <line class="edge flash4" x1="363" y1="243" x2="357" y2="237"/>
  <line class="edge flash1" x1="363" y1="243" x2="362" y2="235"/>
  <line class="edge flash2" x1="357" y1="237" x2="362" y2="235"/>

  <!-- Node at (400,240) -->
  <line class="edge flash3" x1="400" y1="240" x2="403" y2="243"/>
  <line class="edge flash4" x1="400" y1="240" x2="397" y2="237"/>
  <line class="edge flash1" x1="400" y1="240" x2="402" y2="235"/>
  <line class="edge flash2" x1="403" y1="243" x2="397" y2="237"/>
  <line class="edge flash3" x1="403" y1="243" x2="402" y2="235"/>
  <line class="edge flash4" x1="397" y1="237" x2="402" y2="235"/>

  <!-- Node at (420,200) -->
  <line class="edge flash1" x1="420" y1="200" x2="423" y2="203"/>
  <line class="edge flash2" x1="420" y1="200" x2="417" y2="197"/>
  <line class="edge flash3" x1="420" y1="200" x2="422" y2="195"/>
  <line class="edge flash4" x1="423" y1="203" x2="417" y2="197"/>
  <line class="edge flash1" x1="423" y1="203" x2="422" y2="195"/>
  <line class="edge flash2" x1="417" y1="197" x2="422" y2="195"/>

  <!-- Node at (460,270) -->
  <line class="edge flash3" x1="460" y1="270" x2="463" y2="273"/>
  <line class="edge flash4" x1="460" y1="270" x2="457" y2="267"/>
  <line class="edge flash1" x1="460" y1="270" x2="462" y2="265"/>
  <line class="edge flash2" x1="463" y1="273" x2="457" y2="267"/>
  <line class="edge flash3" x1="463" y1="273" x2="462" y2="265"/>
  <line class="edge flash4" x1="457" y1="267" x2="462" y2="265"/>

  <!-- Node at (450,330) -->
  <line class="edge flash1" x1="450" y1="330" x2="453" y2="333"/>
  <line class="edge flash2" x1="450" y1="330" x2="447" y2="327"/>
  <line class="edge flash3" x1="450" y1="330" x2="452" y2="325"/>
  <line class="edge flash4" x1="453" y1="333" x2="447" y2="327"/>
  <line class="edge flash1" x1="453" y1="333" x2="452" y2="325"/>
  <line class="edge flash2" x1="447" y1="327" x2="452" y2="325"/>

  <!-- Node at (400,370) -->
  <line class="edge flash3" x1="400" y1="370" x2="403" y2="373"/>
  <line class="edge flash4" x1="400" y1="370" x2="397" y2="367"/>
  <line class="edge flash1" x1="400" y1="370" x2="402" y2="365"/>
  <line class="edge flash2" x1="403" y1="373" x2="397" y2="367"/>
  <line class="edge flash3" x1="403" y1="373" x2="402" y2="365"/>
  <line class="edge flash4" x1="397" y1="367" x2="402" y2="365"/>

  <!-- Node at (340,370) -->
  <line class="edge flash1" x1="340" y1="370" x2="343" y2="373"/>
  <line class="edge flash2" x1="340" y1="370" x2="337" y2="367"/>
  <line class="edge flash3" x1="340" y1="370" x2="342" y2="365"/>
  <line class="edge flash4" x1="343" y1="373" x2="337" y2="367"/>
  <line class="edge flash1" x1="343" y1="373" x2="342" y2="365"/>
  <line class="edge flash2" x1="337" y1="367" x2="342" y2="365"/>

  <!-- Node at (310,330) -->
  <line class="edge flash3" x1="310" y1="330" x2="313" y2="333"/>
  <line class="edge flash4" x1="310" y1="330" x2="307" y2="327"/>
  <line class="edge flash1" x1="310" y1="330" x2="312" y2="325"/>
  <line class="edge flash2" x1="313" y1="333" x2="307" y2="327"/>
  <line class="edge flash3" x1="313" y1="333" x2="312" y2="325"/>
  <line class="edge flash4" x1="307" y1="327" x2="312" y2="325"/>

  <!-- Node at (330,300) -->
  <line class="edge flash1" x1="330" y1="300" x2="333" y2="303"/>
  <line class="edge flash2" x1="330" y1="300" x2="327" y2="297"/>
  <line class="edge flash3" x1="330" y1="300" x2="332" y2="295"/>
  <line class="edge flash4" x1="333" y1="303" x2="327" y2="297"/>
  <line class="edge flash1" x1="333" y1="303" x2="332" y2="295"/>
  <line class="edge flash2" x1="327" y1="297" x2="332" y2="295"/>

  <!-- Node at (380,300) -->
  <line class="edge flash3" x1="380" y1="300" x2="383" y2="303"/>
  <line class="edge flash4" x1="380" y1="300" x2="377" y2="297"/>
  <line class="edge flash1" x1="380" y1="300" x2="382" y2="295"/>
  <line class="edge flash2" x1="383" y1="303" x2="377" y2="297"/>
  <line class="edge flash3" x1="383" y1="303" x2="382" y2="295"/>
  <line class="edge flash4" x1="377" y1="297" x2="382" y2="295"/>

  <!-- Node at (420,330) -->
  <line class="edge flash1" x1="420" y1="330" x2="423" y2="333"/>
  <line class="edge flash2" x1="420" y1="330" x2="417" y2="327"/>
  <line class="edge flash3" x1="420" y1="330" x2="422" y2="325"/>
  <line class="edge flash4" x1="423" y1="333" x2="417" y2="327"/>
  <line class="edge flash1" x1="423" y1="333" x2="422" y2="325"/>
  <line class="edge flash2" x1="417" y1="327" x2="422" y2="325"/>

  <!-- Node at (380,345) -->
  <line class="edge flash3" x1="380" y1="345" x2="383" y2="348"/>
  <line class="edge flash4" x1="380" y1="345" x2="377" y2="342"/>
  <line class="edge flash1" x1="380" y1="345" x2="382" y2="340"/>
  <line class="edge flash2" x1="383" y1="348" x2="377" y2="342"/>
  <line class="edge flash3" x1="383" y1="348" x2="382" y2="340"/>
  <line class="edge flash4" x1="377" y1="342" x2="382" y2="340"/>

  <!-- Node at (340,345) -->
  <line class="edge flash1" x1="340" y1="345" x2="343" y2="348"/>
  <line class="edge flash2" x1="340" y1="345" x2="337" y2="342"/>
  <line class="edge flash3" x1="340" y1="345" x2="342" y2="340"/>
  <line class="edge flash4" x1="343" y1="348" x2="337" y2="342"/>
  <line class="edge flash1" x1="343" y1="348" x2="342" y2="340"/>
  <line class="edge flash2" x1="337" y1="342" x2="342" y2="340"/>
</g>
  <!-- ========== DENSE NETWORK FOR "." (DOT) ========== -->
  <g id="dot">
    <!-- Original dot nodes: (540,290), (520,310), (540,330), (560,310), (540,310) -->
    <circle class="node" cx="540" cy="290" /><circle class="node" cx="543" cy="293" /><circle class="node" cx="537" cy="287" /><circle class="node" cx="542" cy="285" />
    <circle class="node" cx="520" cy="310" /><circle class="node" cx="523" cy="313" /><circle class="node" cx="517" cy="307" /><circle class="node" cx="522" cy="305" />
    <circle class="node" cx="540" cy="330" /><circle class="node" cx="543" cy="333" /><circle class="node" cx="537" cy="327" /><circle class="node" cx="542" cy="325" />
    <circle class="node" cx="560" cy="310" /><circle class="node" cx="563" cy="313" /><circle class="node" cx="557" cy="307" /><circle class="node" cx="562" cy="305" />
    <circle class="node" cx="540" cy="310" /><circle class="node" cx="543" cy="313" /><circle class="node" cx="537" cy="307" /><circle class="node" cx="542" cy="305" />
    <!-- Edges forming a dense diamond -->
    <line class="edge flash2" x1="540" y1="290" x2="520" y2="310"/><line class="edge flash3" x1="543" y1="293" x2="523" y2="313"/><line class="edge flash4" x1="537" y1="287" x2="517" y2="307"/>
    <line class="edge flash1" x1="520" y1="310" x2="540" y2="330"/><line class="edge flash2" x1="523" y1="313" x2="543" y2="333"/><line class="edge flash3" x1="517" y1="307" x2="537" y2="327"/>
    <line class="edge flash4" x1="540" y1="330" x2="560" y2="310"/><line class="edge flash1" x1="543" y1="333" x2="563" y2="313"/><line class="edge flash2" x1="537" y1="327" x2="557" y2="307"/>
    <line class="edge flash3" x1="560" y1="310" x2="540" y2="290"/><line class="edge flash4" x1="563" y1="313" x2="543" y2="293"/><line class="edge flash1" x1="557" y1="307" x2="537" y2="287"/>
    <!-- plus internal connections -->
    <line class="edge flash2" x1="540" y1="290" x2="540" y2="310"/><line class="edge flash3" x1="543" y1="293" x2="543" y2="313"/><line class="edge flash4" x1="537" y1="287" x2="537" y2="307"/>
  </g>

</svg>